#N canvas 242 27 1006 635 12;
#N canvas 578 435 401 202 table 0;
#N canvas 0 50 450 300 (subpatch) 0;
#X array readsound_\$1_\$2 102758 float 0;
#X coords 0 -1 102757 1 300 130 1;
#X restore 46 193 graph;
#X obj 54 57 sel 1;
#X msg 54 86 66000;
#X obj 54 29 extra/sv \$1_readsound_\$2_recmode;
#X obj 54 113 array size readsound_\$1_\$2;
#X connect 1 0 2 0;
#X connect 2 0 4 0;
#X connect 3 0 1 0;
#X restore 124 -35 pd table;
#N canvas 972 164 728 558 ouput-effect 0;
#X obj 181 191 *~ 1;
#X obj -90 113 inlet~;
#X obj -89 260 outlet~;
#X obj 172 244 outlet~;
#X obj -89 211 *~ 1;
#X obj -4 111 r \$0_volume;
#X obj -4 136 / 255;
#X obj -4 161 * 2;
#X obj 131 109 r \$1_\$2_readloop_volume_fromUI;
#X connect 0 0 3 0;
#X connect 1 0 0 0;
#X connect 1 0 4 0;
#X connect 4 0 2 0;
#X connect 5 0 6 0;
#X connect 6 0 7 0;
#X connect 7 0 4 1;
#X connect 8 0 6 0;
#X restore 515 297 pd ouput-effect;
#X obj 237 59 vsl 50 95 0 200 0 0 \$1_loop_volumeOUT \$1_loop_volumeIN volume 5 12 0 10 #542c38 #fcfcfc #fcfcfc 0 0;
#X obj 292 104 vsl 36 50 0 120 0 0 \$1_loop_effect1OUT \$1_loop_effect1IN delay 3 14 0 10 #542c38 #fcfcfc #fcfcfc 0 0;
#X obj 222 59 vsl 8 95 0 127 0 0 empty \$1_loop_vumetreIN empty 0 -9 0 10 #dcdcdc #9c00fc #000000 0 1;
#N canvas 411 392 703 360 init 0;
#X floatatom 279 45 4 0 100 0 - - - 0;
#X obj 279 65 * 0.001;
#X text 314 45 msec;
#X obj 279 -9 bang;
#X obj 279 -39 loadbang;
#X obj 279 88 s \$0_chunk-size;
#X msg 279 23 40;
#X msg 395 -11 0;
#X obj 436 19 extra/sv \$1_readsound_\$2_isplaying;
#X obj 437 63 extra/sv \$1_readsound_\$2_recmode;
#X connect 0 0 1 0;
#X connect 1 0 5 0;
#X connect 3 0 6 0;
#X connect 4 0 3 0;
#X connect 4 0 7 0;
#X connect 6 0 0 0;
#X connect 7 0 8 1;
#X connect 7 0 9 1;
#X restore 123 -6 pd init;
#X obj 196 253 tgl 15 0 empty empty empty 17 7 0 10 #fcfcfc #000000 #000000 0 1;
#X obj 258 282 hsl 128 15 0 1 0 0 empty empty empty -2 -8 0 10 #fcfcfc #000000 #000000 0 1;
#X obj 484 325 cnv 15 650 70 empty empty TO::OUTLET 20 12 0 14 #fce0c4 #404040 0;
#X obj 386 -238 cnv 15 650 70 empty empty FROM::INLET 20 12 0 14 #fce0c4 #404040 0;
#X text 38 -255 RECEIVE FROM SENSOR;
#X obj 876 -235 inlet;
#X obj 632 355 outlet~;
#X obj 515 357 outlet~;
#X obj 515 258 *~ 1;
#X obj 1097 -126 cnv 15 300 100 empty empty empty 20 12 0 14 #e0e0e0 #404040 0;
#X obj 1029 339 outlet;
#X obj 1199 -114 r \$1_\$2_click_fromUI;
#X obj 876 -200 change;
#X obj 876 -175 s \$0_volume;
#X obj 515 -235 inlet;
#X obj 398 -48 tgl 45 0 empty empty simply-read 0 -14 0 10 #eca844 #000000 #000000 0 1;
#N canvas 10 20 1182 652 simply-read 1;
#X obj 382 105 bng 15 250 50 0 empty empty empty 17 7 0 10 #fcfcfc #000000 #000000;
#X msg 227 508 0 \$1;
#X obj 230 661 outlet~;
#X obj 227 537 line~ 0 100;
#X obj 229 597 *~;
#X obj 138 181 sel 0;
#X obj 255 53 route float bang;
#X obj 754 496 line;
#X msg 846 473 0, f 4;
#X obj 888 366 r \$0_end;
#X obj 169 500 f 1;
#X obj 317 447 r \$1_\$2_readloop_release_fromUI;
#X obj 754 383 i 0;
#X obj 773 331 r \$0_loop_duration;
#X msg 754 442 1 \$1;
#X obj 778 244 t b b b;
#X obj 254 3 inlet;
#X obj 739 667 s \$1_readsound_\$2_slider_ui;
#X obj 559 441 tabread4~ readsound_\$1_\$2;
#X obj 65 483 s \$0_end;
#X obj 163 725 print simply-read;
#X obj 435 597 dac~;
#X obj 367 626 vu 20 200 empty empty -1 -10 0 12 #404040 #000000 1 0;
#X obj 366 568 env~;
#X obj 366 594 - 97;
#N canvas 0 50 450 250 (subpatch) 0;
#X array readsound_\$1_\$2 100 float 3;
#A 0 0 0 0 0 0 0 0 0 0 0 0 0 0 0 0 0 0 0 0 0 0 0 0 0 0 0 0 0 0 0 0 0 0 0 0 0 0 0 0 0 0 0 0 0 0 0 0 0 0 0 0 0 0 0 0 0 0 0 0 0 0 0 0 0 0 0 0 0 0 0 0 0 0 0 0 0 0 0 0 0 0 0 0 0 0 0 0 0 0 0 0 0 0 0 0 0 0 0 0 0;
#X coords 0 1 100 -1 200 140 1;
#X restore 812 724 graph;
#N canvas 223 15 1131 652 pitch 0;
#N canvas 0 0 450 300 (subpatch) 0;
#X array readsound_\$1_\$2 113664 float 2;
#X coords 0 1 113664 -1 200 140 1 0 0;
#X restore 690 457 graph;
#X obj 240 354 expr 44100 / $f1;
#X floatatom 246 415 5 0 0 0 - - - 0;
#X obj 259 493 phasor~;
#X obj 262 538 *~;
#X obj 486 576 unsig~ 50;
#X obj 691 605 hsl 200 15 0 1 0 0 empty empty empty -2 -6 0 8 #fcfcfc #000000 #000000 0 1;
#X text 689 628 0;
#X text 889 629 1;
#X obj 257 449 *;
#X obj 443 324 hsl 128 15 -2 2 0 0 empty empty empty -2 -6 0 8 #fcc4c4 #000000 #000000 0 1;
#X text 430 341 -2;
#X text 558 342 2;
#X text 472 301 playback speed;
#X obj 300 390 t b f;
#X msg 478 253 1;
#X obj 601 518 snapshot~;
#X obj 603 464 tgl 15 0 empty empty empty 17 7 0 10 #fcfcfc #000000 #000000 0 1;
#X floatatom 601 551 5 0 0 0 - - - 0;
#X obj 1011 217 bng 15 250 50 0 empty empty empty 17 7 0 10 #fcfcfc #000000 #000000;
#X floatatom 456 356 5 0 0 0 - - - 0;
#X msg 522 252 0;
#X obj 290 105 bng 15 250 50 0 empty empty empty 17 7 0 10 #fcfcfc #000000 #000000;
#X obj 607 421 loadbang;
#X obj 298 61 loadbang;
#X obj 453 187 loadbang;
#X msg 307 465 0;
#X obj 309 442 bng 15 250 50 0 empty empty reset_0 17 7 0 10 #f8fc00 #000000 #000000;
#X obj 554 227 bng 15 250 50 0 empty empty stop 17 7 0 10 #fc0400 #000000 #000000;
#X msg 434 256 1.5;
#X obj 493 227 bng 15 250 50 0 empty empty start 17 7 0 10 #00fc04 #000000 #000000;
#X text 323 148 array should have data saved already;
#X obj 262 611 outlet~;
#X obj 89 210 r \$0_loop_duration;
#X obj 291 129 array size readsound_\$1_\$2;
#X obj 171 39 inlet;
#X text 173 14 bang;
#X obj 108 680 print pitch;
#X obj 871 22 ctlin 1;
#X floatatom 871 47 5 0 0 0 - - - 0;
#X floatatom 871 96 5 0 0 0 - - - 0;
#X floatatom 940 96 5 0 0 0 - - - 0;
#X obj 871 71 moses 50;
#X obj 871 120 / -98;
#X obj 871 145 + 1;
#X floatatom 871 170 5 0 0 0 - - - 0;
#X obj 940 120 - 75;
#X obj 940 145 / 52;
#X obj 940 170 + 1;
#X floatatom 940 195 5 0 0 0 - - - 0;
#X floatatom 885 238 5 0 0 0 - - - 0;
#X floatatom 567 763 5 0 0 0 - - - 0;
#X msg 587 737 0;
#X obj 171 64 t b b b;
#X msg 557 684 1;
#X obj 640 674 bng 20 250 50 0 empty empty empty 0 -10 0 12 #fcfcfc #000000 #000000;
#X floatatom 661 650 8 0 0 0 - - - 0;
#X obj 690 25 ctlin 1;
#X floatatom 690 80 5 0 0 0 - - - 0;
#X floatatom 688 133 5 0 0 0 - - - 0;
#X floatatom 741 136 5 0 0 0 - - - 0;
#X floatatom 741 185 5 0 0 0 - - - 0;
#X floatatom 794 187 5 0 0 0 - - - 0;
#X obj 688 108 moses 49;
#X obj 688 182 / 96;
#X floatatom 688 232 5 0 0 0 - - - 0;
#X obj 741 160 moses 79;
#X obj 794 211 - 79;
#X obj 794 236 / 48;
#X obj 794 261 + 1;
#X floatatom 794 286 5 0 0 0 - - - 0;
#X floatatom 664 290 5 0 0 0 - - - 0;
#X obj 688 207 + 0.5;
#X msg 741 209 1;
#X obj 593 617 moses 0.995;
#X obj 748 656 r readingMode;
#X floatatom 748 681 5 0 0 0 - - - 0;
#X obj 748 705 moses 3;
#X floatatom 794 739 5 0 0 0 - - - 0;
#X obj 637 708 spigot;
#X floatatom 748 730 5 0 0 0 - - - 0;
#X obj 637 753 s \$0_stopReading;
#X obj 602 487 metro 0.1;
#X connect 1 0 2 0;
#X connect 2 0 9 0;
#X connect 3 0 4 0;
#X connect 3 0 5 0;
#X connect 3 0 16 0;
#X connect 4 0 32 0;
#X connect 5 0 6 0;
#X connect 9 0 3 0;
#X connect 10 0 20 0;
#X connect 10 0 14 0;
#X connect 14 0 2 0;
#X connect 14 1 9 1;
#X connect 15 0 10 0;
#X connect 16 0 18 0;
#X connect 17 0 82 0;
#X connect 18 0 6 0;
#X connect 21 0 10 0;
#X connect 22 0 34 0;
#X connect 23 0 17 0;
#X connect 25 0 15 0;
#X connect 26 0 3 1;
#X connect 27 0 26 0;
#X connect 28 0 21 0;
#X connect 29 0 10 0;
#X connect 30 0 15 0;
#X connect 33 0 1 0;
#X connect 33 0 4 1;
#X connect 34 0 1 0;
#X connect 34 0 4 1;
#X connect 35 0 53 0;
#X connect 38 0 39 0;
#X connect 39 0 42 0;
#X connect 40 0 43 0;
#X connect 41 0 46 0;
#X connect 42 0 40 0;
#X connect 42 1 41 0;
#X connect 43 0 44 0;
#X connect 44 0 45 0;
#X connect 45 0 50 0;
#X connect 46 0 47 0;
#X connect 47 0 48 0;
#X connect 48 0 49 0;
#X connect 49 0 50 0;
#X connect 52 0 51 0;
#X connect 53 0 22 0;
#X connect 53 1 27 0;
#X connect 54 0 51 0;
#X connect 55 0 79 0;
#X connect 56 0 55 0;
#X connect 57 0 58 0;
#X connect 58 0 63 0;
#X connect 59 0 64 0;
#X connect 60 0 66 0;
#X connect 61 0 73 0;
#X connect 62 0 67 0;
#X connect 63 0 59 0;
#X connect 63 1 60 0;
#X connect 64 0 72 0;
#X connect 65 0 71 0;
#X connect 66 0 61 0;
#X connect 66 1 62 0;
#X connect 67 0 68 0;
#X connect 68 0 69 0;
#X connect 69 0 70 0;
#X connect 70 0 71 0;
#X connect 71 0 10 0;
#X connect 72 0 65 0;
#X connect 73 0 71 0;
#X connect 74 1 56 0;
#X connect 75 0 76 0;
#X connect 76 0 77 0;
#X connect 77 0 80 0;
#X connect 77 1 78 0;
#X connect 79 0 52 0;
#X connect 79 0 81 0;
#X connect 80 0 79 1;
#X connect 82 0 16 0;
#X coords 0 0 1 1 85 60 0;
#X restore 659 293 pd pitch;
#X obj 229 622 hip~ 5;
#X obj 103 272 spigot;
#X obj 383 401 bng 20 250 50 0 empty empty empty 0 -10 0 12 #fcfcfc #000000 #000000;
#X obj 252 382 extra/count2;
#X obj 268 480 i 500;
#X obj 221 480 i 0;
#X obj 422 361 extra/sv \$1_sampler8_bank;
#X obj 422 292 r \$0_stopReading;
#X obj 294 334 spigot;
#X floatatom 830 557 5 0 0 0 - - - 0;
#X obj 786 523 moses 1;
#N canvas 1071 251 450 300 count_2 0;
#X obj 112 92 float;
#X obj 167 91 + 1;
#X floatatom 168 137 5 0 0 0 - - - 0;
#X floatatom 41 159 5 0 0 0 - - - 0;
#X obj 112 54 inlet;
#X obj 174 230 outlet;
#X floatatom 94 155 5 0 0 0 - - - 0;
#X msg 81 203 0;
#X obj 38 126 moses 3;
#X connect 0 0 1 0;
#X connect 1 0 0 1;
#X connect 1 0 2 0;
#X connect 2 0 5 0;
#X connect 2 0 8 0;
#X connect 4 0 0 0;
#X connect 6 0 7 0;
#X connect 7 0 0 0;
#X connect 8 0 3 0;
#X connect 8 1 6 0;
#X restore 718 150 pd count_2;
#X obj 721 109 bng 20 250 50 0 empty empty empty 0 -10 0 12 #fcfcfc #000000 #000000;
#X floatatom 718 175 5 0 0 0 - - - 0;
#X obj 807 589 spigot;
#X obj 798 632 bang;
#X obj 754 414 / 44.1;
#X obj 198 223 r readingMode_1;
#X obj 383 197 r readingMode_2;
#X obj 960 327 r readingMode_3;
#X obj 161 247 tgl 20 0 empty empty empty 0 -10 0 12 #fcfcfc #000000 #000000 0 1;
#X obj 360 313 tgl 20 0 empty empty empty 0 -10 0 12 #fcfcfc #000000 #000000 0 1;
#X obj 910 512 tgl 20 0 empty empty empty 0 -10 0 12 #fcfcfc #000000 #000000 0 1;
#X obj 414 224 r readingMode_3;
#X obj 370 286 ||;
#X obj 434 248 t b f;
#X floatatom 189 109 5 0 0 0 - - - 0;
#X obj 965 537 tgl 20 0 empty empty empty 0 -10 0 12 #fcfcfc #000000 #000000 0 1;
#X obj 975 510 ||;
#X obj 1015 477 t b f;
#X obj 1004 375 r readingMode_1;
#X obj 1035 402 r readingMode_2;
#X obj 939 593 spigot;
#X obj 959 658 s \$0_stopReading;
#X floatatom 110 348 5 0 0 0 - - - 0;
#X obj 161 421 bng 20 250 50 0 empty empty empty 0 -10 0 12 #fcfcfc #000000 #000000;
#X obj 903 408 bng 20 250 50 0 empty empty empty 0 -10 0 12 #fcfcfc #000000 #000000;
#X obj 860 433 del 5;
#X obj 490 651 r \$0_light_number;
#X floatatom 490 676 5 0 0 0 - - - 0;
#X obj 570 780 noteout;
#X msg 634 674 0;
#X obj 634 646 bng 20 250 50 0 empty empty empty 0 -10 0 12 #fcfcfc #000000 #000000;
#X msg 697 667 127;
#X obj 697 642 tgl 20 0 empty empty empty 0 -10 0 12 #fcfcfc #000000 #000000 0 1;
#X floatatom 648 720 5 0 0 0 - - - 0;
#X obj 648 744 bng 20 250 50 0 empty empty empty 0 -10 0 12 #fcfcfc #000000 #000000;
#X obj 639 601 moses 1e-06;
#X connect 0 0 10 0;
#X connect 0 0 26 0;
#X connect 0 0 35 0;
#X connect 0 0 15 0;
#X connect 1 0 3 0;
#X connect 3 0 4 1;
#X connect 4 0 27 0;
#X connect 5 0 28 0;
#X connect 5 1 0 0;
#X connect 6 0 53 0;
#X connect 6 1 0 0;
#X connect 7 0 17 0;
#X connect 7 0 37 0;
#X connect 7 0 74 0;
#X connect 8 0 7 0;
#X connect 9 0 63 0;
#X connect 9 0 64 0;
#X connect 10 0 3 0;
#X connect 11 0 31 1;
#X connect 12 0 43 0;
#X connect 13 0 12 1;
#X connect 14 0 7 0;
#X connect 15 1 12 0;
#X connect 15 2 8 0;
#X connect 16 0 6 0;
#X connect 18 0 4 0;
#X connect 23 0 24 0;
#X connect 24 0 22 0;
#X connect 26 0 18 0;
#X connect 27 0 2 0;
#X connect 28 0 31 0;
#X connect 28 0 61 0;
#X connect 28 0 19 0;
#X connect 29 0 30 1;
#X connect 29 0 32 0;
#X connect 30 0 32 0;
#X connect 30 0 19 0;
#X connect 30 0 62 0;
#X connect 31 0 1 0;
#X connect 32 0 1 0;
#X connect 33 0 29 0;
#X connect 34 0 30 1;
#X connect 35 0 30 0;
#X connect 36 0 8 0;
#X connect 36 0 41 0;
#X connect 36 0 59 0;
#X connect 37 1 36 0;
#X connect 38 0 40 0;
#X connect 39 0 38 0;
#X connect 41 0 42 0;
#X connect 42 0 12 0;
#X connect 43 0 14 0;
#X connect 44 0 47 0;
#X connect 45 0 51 0;
#X connect 46 0 49 0;
#X connect 47 0 28 1;
#X connect 48 0 35 1;
#X connect 49 0 41 1;
#X connect 50 0 52 0;
#X connect 51 0 48 0;
#X connect 52 0 51 0;
#X connect 52 1 51 1;
#X connect 53 0 5 0;
#X connect 54 0 59 1;
#X connect 55 0 54 0;
#X connect 56 0 55 0;
#X connect 56 1 55 1;
#X connect 57 0 55 0;
#X connect 58 0 56 0;
#X connect 59 0 60 0;
#X connect 64 0 8 0;
#X connect 65 0 66 0;
#X connect 66 0 67 0;
#X connect 68 0 72 0;
#X connect 69 0 68 0;
#X connect 70 0 72 0;
#X connect 71 0 70 0;
#X connect 72 0 67 1;
#X connect 72 0 73 0;
#X connect 73 0 66 0;
#X connect 74 0 68 0;
#X connect 74 1 70 0;
#X restore 514 229 pd simply-read;
#X obj 705 -234 inlet;
#N canvas 376 143 868 514 simply-record 0;
#X obj 146 17 inlet;
#X obj 146 90 sel 0;
#X obj 146 51 route float bang;
#X obj 81 313 hip~ 5;
#X msg 368 248 bang;
#X text 210 18 <-- record;
#X msg 367 313 stop;
#X obj 367 284 delay 1500;
#X obj 428 393 s \$0_loop_duration;
#X msg 428 338 1500;
#X obj 365 352 bng 15 250 50 0 empty empty empty 17 7 0 10 #fcfcfc #000000 #000000;
#X obj 428 367 * 44.1;
#X obj 499 274 s \$0_resetPitch;
#X obj 81 382 tabwrite~ readsound_\$1_\$2;
#X obj 82 19 inlet~;
#X obj 574 351 i 0;
#X obj 178 174 timer;
#X obj 178 123 bang;
#X msg 164 311 stop;
#X obj 178 231 s \$0_loop_duration;
#X obj 178 203 * 44.1;
#X obj 574 316 r \$0_loop_duration;
#X obj 574 378 array size readsound_\$1_\$2;
#X connect 0 0 2 0;
#X connect 1 0 16 1;
#X connect 1 0 18 0;
#X connect 1 1 17 0;
#X connect 2 0 1 0;
#X connect 2 1 4 0;
#X connect 3 0 13 0;
#X connect 4 0 7 0;
#X connect 4 0 12 0;
#X connect 4 0 13 0;
#X connect 6 0 9 0;
#X connect 6 0 10 0;
#X connect 6 0 13 0;
#X connect 7 0 6 0;
#X connect 9 0 11 0;
#X connect 11 0 8 0;
#X connect 14 0 3 0;
#X connect 15 0 22 0;
#X connect 16 0 20 0;
#X connect 17 0 16 0;
#X connect 17 0 13 0;
#X connect 18 0 13 0;
#X connect 20 0 19 0;
#X connect 21 0 15 0;
#X restore 698 296 pd simply-record;
#X obj 744 -139 tgl 45 0 empty empty rec_mode 0 -14 0 10 #fc0400 #000000 #000000 0 1;
#X obj 486 -163 route bang float;
#X msg 486 -135 1;
#X obj 614 180 f 0;
#X obj 654 180 f 0;
#X obj 713 122 sel 0 1;
#X obj 618 63 t b f;
#N canvas 304 249 861 374 open 0;
#X obj 234 165 soundfiler;
#X obj 234 59 inlet;
#X obj 47 58 r \$1_\$2_freesound_open;
#X obj 47 87 openpanel;
#X obj 234 108 pack s \$1 \$2;
#X msg 234 139 read -resize \$1 readsound_\$2_\$3;
#X obj 234 197 s \$0_loop_duration;
#X obj 129 190 print open;
#X connect 0 0 6 0;
#X connect 1 0 4 0;
#X connect 2 0 3 0;
#X connect 3 0 4 0;
#X connect 4 0 5 0;
#X connect 5 0 0 0;
#X restore 125 -107 pd open;
#X obj 503 115 r globalPitch;
#X floatatom 506 162 5 0 0 0 - - - 0;
#X obj 433 -96 extra/sv \$1_readsound_\$2_isplaying;
#X obj 713 94 extra/sv \$1_readsound_\$2_recmode;
#X obj 1121 -61 extra/sv \$1_readsound_\$2_isplaying;
#X obj 196 216 r \$1_readloop_\$2_play_ui;
#X obj 258 249 r \$1_readloop_\$2_slider_ui;
#X obj 961 -237 inlet~;
#X obj 962 -176 s~ \$0_audioin;
#X obj 692 227 r~ \$0_audioin;
#X obj 632 -187 extra/sv \$1_readsound_\$2_recmode;
#N canvas 376 143 662 424 save 0;
#X obj 54 229 soundfiler;
#X obj 54 1 extra/sv \$1_looper8_saveBank;
#X obj 54 33 t b b;
#X obj 54 109 f 0;
#X msg 50 341 write -wave -normalize ../samples/saved/\$4/\$2_\$3.wav \$1_loop;
#X obj 54 141 pack 0 \$1 \$2;
#X floatatom 310 120 5 0 0 0 - - - 0;
#X obj 141 68 extra/sv \$1_sampler8_bank;
#X obj 29 73 bng 15 250 50 0 empty empty empty 17 7 0 10 #fcfcfc #000000 #000000;
#X msg 54 174 write -wave ../../samples/samplerBank/\$1/\$3.wav readsound_\$2_\$3;
#X connect 1 0 2 0;
#X connect 2 0 3 0;
#X connect 2 1 7 2;
#X connect 3 0 5 0;
#X connect 5 0 9 0;
#X connect 7 1 3 1;
#X connect 7 1 6 0;
#X connect 8 0 3 0;
#X connect 9 0 0 0;
#X restore 124 -74 pd save;
#X obj 127 -223 inlet;
#X obj 152 317 print readsound;
#X obj 1117 -216 inlet;
#X floatatom 1117 -190 5 0 0 0 - - - 0;
#X text 1094 -252 light number;
#X obj 1117 -165 s \$0_light_number;
#X connect 1 0 13 0;
#X connect 1 1 12 0;
#X connect 11 0 18 0;
#X connect 14 0 1 0;
#X connect 17 0 37 1;
#X connect 18 0 19 0;
#X connect 20 0 26 0;
#X connect 21 0 31 0;
#X connect 22 0 14 0;
#X connect 23 0 43 1;
#X connect 26 0 27 0;
#X connect 26 1 35 1;
#X connect 27 0 35 1;
#X connect 28 0 22 0;
#X connect 29 0 24 1;
#X connect 30 0 28 0;
#X connect 30 1 29 0;
#X connect 31 0 36 2;
#X connect 31 1 29 1;
#X connect 31 1 28 1;
#X connect 33 0 34 0;
#X connect 35 0 31 0;
#X connect 36 1 30 0;
#X connect 38 0 6 0;
#X connect 39 0 7 0;
#X connect 40 0 41 0;
#X connect 42 0 24 0;
#X connect 43 0 25 0;
#X connect 45 0 32 0;
#X connect 47 0 48 0;
#X connect 48 0 50 0;
#X coords 0 635 1 634 132 500 0;
