#N canvas 408 73 1032 750 12;
#X obj 467 35 soundfiler;
#N canvas 972 164 728 558 ouput-effect 0;
#X obj 181 191 *~ 1;
#X obj -90 113 inlet~;
#X obj -89 260 outlet~;
#X obj 172 244 outlet~;
#X obj -89 211 *~ 1;
#X obj -4 111 r \$0_volume;
#X obj -4 136 / 255;
#X obj -4 161 * 2;
#X obj 131 109 r \$1_\$2_readloop_volume_fromUI;
#X connect 0 0 3 0;
#X connect 1 0 0 0;
#X connect 1 0 4 0;
#X connect 4 0 2 0;
#X connect 5 0 6 0;
#X connect 6 0 7 0;
#X connect 7 0 4 1;
#X connect 8 0 6 0;
#X restore 605 422 pd ouput-effect;
#X obj 327 174 vsl 50 95 0 200 0 0 \$1_loop_volumeOUT \$1_loop_volumeIN
volume 5 12 0 10 -86735 -262144 -262144 0 0;
#X obj 382 219 vsl 36 50 0 120 0 0 \$1_loop_effect1OUT \$1_loop_effect1IN
delay 3 14 0 10 -86735 -262144 -262144 0 0;
#X obj 312 174 vsl 8 95 0 127 0 0 empty \$1_loop_vumetreIN empty 0
-9 0 10 -228856 -159808 -1 0 1;
#N canvas 652 26 787 713 findtempo 0;
#X obj 205 33 inlet;
#X floatatom 178 223 5 0 0 0 - - -;
#X obj 151 594 /;
#X obj 232 271 log;
#X obj 232 360 i;
#X obj 232 310 / 0.693147;
#X floatatom 232 337 5 0 0 0 - - -;
#X floatatom 232 391 5 0 0 0 - - -;
#X obj 223 477 pow;
#X msg 211 449 2;
#X floatatom 223 502 5 0 0 0 - - -;
#X obj 224 550 s \$0_loop_size;
#X obj 211 416 t b f;
#X floatatom 206 168 8 0 0 0 - - -;
#X obj 151 157 t f f;
#X obj 151 637 t b b f;
#X obj 205 110 / 44.1;
#X floatatom 259 69 10 0 0 0 - - -;
#X obj 204 705 pow -1;
#X obj 204 731 * 60;
#X obj 204 674 / 1000;
#X floatatom 204 790 5 0 0 0 - - -;
#X obj 49 719 s \$0_loop_tempo;
#X text 238 633 ici la véritable valeur du tempo en duree;
#X text 265 795 ici le tempo en bpm;
#X obj 299 111 s \$0_loop_duration;
#X obj 178 194 / 380;
#X obj 203 822 s \$0_loop_realtempo;
#X obj 374 825 s \$1_\$2_realtempo_toUI;
#X obj 205 765 i 0;
#X connect 0 0 16 0;
#X connect 0 0 17 0;
#X connect 0 0 25 0;
#X connect 1 0 3 0;
#X connect 2 0 15 0;
#X connect 3 0 5 0;
#X connect 4 0 7 0;
#X connect 5 0 6 0;
#X connect 6 0 4 0;
#X connect 7 0 12 0;
#X connect 8 0 10 0;
#X connect 9 0 8 0;
#X connect 10 0 2 1;
#X connect 10 0 11 0;
#X connect 12 0 9 0;
#X connect 12 1 8 1;
#X connect 14 0 2 0;
#X connect 14 1 26 0;
#X connect 15 2 20 0;
#X connect 15 2 22 0;
#X connect 16 0 13 0;
#X connect 16 0 14 0;
#X connect 18 0 19 0;
#X connect 19 0 29 0;
#X connect 20 0 18 0;
#X connect 21 0 27 0;
#X connect 21 0 28 0;
#X connect 26 0 1 0;
#X connect 29 0 21 0;
#X restore 467 64 pd findtempo;
#N canvas 214 197 979 566 timecompression 0;
#X obj 43 208 hip~ 5;
#X obj 44 155 *~;
#X obj 44 57 +~;
#X obj 43 9 samphold~;
#X obj 44 33 *~;
#X obj 209 88 -~ 0.5;
#X obj 209 112 *~ 0.5;
#X obj 209 135 cos~;
#X obj 43 184 +~;
#X obj 43 107 +~ 1;
#X obj 295 164 *~;
#X obj 295 66 +~;
#X obj 294 18 samphold~;
#X obj 295 42 *~;
#X obj 460 97 -~ 0.5;
#X obj 460 121 *~ 0.5;
#X obj 460 144 cos~;
#X obj 294 116 +~ 1;
#X text 229 -50 TIME COMPRESSION/EXPANSION BY LOOPED SAMPLING;
#X obj 43 249 outlet~;
#X obj 185 -91 inlet~;
#X floatatom 666 -49 0 0 0 0 - - -;
#X obj 677 23 t b f;
#X obj 665 103 phasor~;
#X obj 802 123 +~ 0.5;
#X obj 803 149 wrap~;
#X text 699 -38 <-- transposition \, halftones/10;
#X floatatom 673 80 5 0 0 0 - - -;
#X obj 790 22 t b f;
#X obj 665 55 expr (pow(2 \, $f1/120)-$f3)/$f2;
#X obj 667 -87 r transpose;
#X obj 186 -53 *~ 1;
#X obj 790 -63 r \$0_loop_precession;
#X obj 131 10 r~ \$0_phase;
#X obj 209 64 r~ \$0_phase;
#X obj 382 19 r~ \$0_phase2;
#X obj 460 74 r~ \$0_phase2;
#X obj 43 -16 r \$0_chunk-size;
#X obj 294 -7 r \$0_chunk-size;
#X obj 677 -2 r \$0_chunk-size;
#X obj 44 131 tabread4~ \$0_loop;
#X obj 295 140 tabread4~ \$0_loop;
#N canvas 0 22 450 278 (subpatch) 0;
#X array \$0_looptest 4000 float 0;
#X coords 0 1 3999 -1 200 100 1 0 0;
#X restore 584 327 graph;
#X obj 653 205 bng 15 250 50 0 empty empty empty 17 7 0 10 -262144
-1 -1;
#X obj 581 268 tabwrite~ \$0_looptest;
#X floatatom 853 -19 5 0 0 0 - - -;
#X obj 853 7 / 100;
#X obj 597 244 metro 100;
#X obj 809 175 *~ 44100;
#X obj 681 173 *~ 44100;
#X obj 681 196 s~ \$0_phaseM;
#X obj 811 201 s~ \$0_phase2M;
#X obj 79 34 r~ \$0_phaseM;
#X obj 330 43 r~ \$0_phase2M;
#X obj 794 247 s~ \$0_phase2;
#X obj 578 179 s~ \$0_phase;
#X connect 0 0 19 0;
#X connect 1 0 8 0;
#X connect 2 0 9 0;
#X connect 3 0 4 0;
#X connect 4 0 2 0;
#X connect 5 0 6 0;
#X connect 6 0 7 0;
#X connect 7 0 1 1;
#X connect 8 0 0 0;
#X connect 9 0 40 0;
#X connect 10 0 8 1;
#X connect 11 0 17 0;
#X connect 12 0 13 0;
#X connect 13 0 11 0;
#X connect 14 0 15 0;
#X connect 15 0 16 0;
#X connect 16 0 10 1;
#X connect 17 0 41 0;
#X connect 20 0 31 0;
#X connect 21 0 29 0;
#X connect 22 0 29 0;
#X connect 22 1 29 1;
#X connect 23 0 24 0;
#X connect 23 0 49 0;
#X connect 23 0 55 0;
#X connect 23 0 44 0;
#X connect 24 0 25 0;
#X connect 25 0 48 0;
#X connect 25 0 54 0;
#X connect 28 0 29 0;
#X connect 28 1 29 2;
#X connect 29 0 23 0;
#X connect 29 0 27 0;
#X connect 30 0 21 0;
#X connect 31 0 2 1;
#X connect 31 0 11 1;
#X connect 32 0 28 0;
#X connect 33 0 3 1;
#X connect 34 0 5 0;
#X connect 35 0 12 1;
#X connect 36 0 14 0;
#X connect 37 0 3 0;
#X connect 38 0 12 0;
#X connect 39 0 22 0;
#X connect 40 0 1 0;
#X connect 41 0 10 0;
#X connect 43 0 47 0;
#X connect 45 0 46 0;
#X connect 46 0 28 0;
#X connect 47 0 44 0;
#X connect 48 0 51 0;
#X connect 49 0 50 0;
#X connect 52 0 4 1;
#X connect 53 0 13 1;
#X restore 711 391 pd timecompression;
#N canvas 175 408 703 360 init 0;
#X floatatom 279 45 4 0 100 0 - - -;
#X obj 279 65 * 0.001;
#X text 314 45 msec;
#X obj 279 -9 bang;
#X obj 279 -39 loadbang;
#X obj 279 88 s \$0_chunk-size;
#X msg 498 14 0;
#X obj 409 86 extra/sv \$1_\$2_readloop_isplaying;
#X obj 408 121 extra/sv \$1_4_readloop_waitforplay;
#X msg 279 22 80;
#X obj 400 187 extra/sv \$1_\$2_readloop_inverse;
#X obj 400 268 extra/sv \$1_\$2_readloop_slice;
#X connect 0 0 1 0;
#X connect 1 0 5 0;
#X connect 3 0 9 0;
#X connect 4 0 3 0;
#X connect 4 0 6 0;
#X connect 6 0 7 1;
#X connect 6 0 8 1;
#X connect 6 0 10 1;
#X connect 6 0 11 1;
#X connect 9 0 0 0;
#X restore 110 255 pd init;
#N canvas 433 83 819 749 rampgenerator 1;
#X obj 81 -271 f;
#X obj 115 -270 + 1;
#X obj 81 -400 bng 15 250 50 0 empty empty empty 17 7 0 10 -262144
-1 -1;
#X floatatom 81 -242 5 0 0 0 - - -;
#X obj 81 -196 select 0;
#X obj 209 -270 r \$0_loop_size;
#X msg 214 -306 0;
#X obj 81 -219 mod 1;
#X floatatom 209 -243 5 0 0 0 - - -;
#X obj 80 -157 bng 15 250 50 0 empty empty empty 17 7 0 10 -262144
-1 -1;
#X obj 418 -298 pow -1;
#X obj 419 -325 / 60;
#X obj 206 -158 * 1;
#X obj 27 -116 s \$0_loop_start;
#X obj 577 -185 s \$0_loop_precession;
#X obj -128 31 r tempoStopOut;
#X obj 418 -272 * 1;
#X obj 579 -395 / 1000;
#X obj 579 -364 pow -1;
#X obj 579 -338 * 60;
#X floatatom 578 -301 5 0 0 0 - - -;
#X obj 577 -222 / 1;
#X obj 579 -434 r \$0_loop_tempo;
#X obj 494 -289 i 0;
#X obj 577 -255 t b f;
#X obj 212 -207 t b f;
#N canvas 168 215 609 499 slider_ui 0;
#X obj 196 169 inlet~;
#X obj 200 227 snapshot~;
#X obj 311 139 loadbang;
#X obj 284 138 bng 15 250 50 0 empty empty empty 17 7 0 10 -262144
-1 -1;
#X obj 201 334 s \$1_\$2_readloop_slider_ui;
#X floatatom -22 198 10 0 0 0 - - -;
#X obj -22 251 change;
#X obj -22 284 s \$1_\$2_readloop_play_ui;
#X obj 316 172 metro 100;
#X obj -22 226 != 1;
#X obj -22 153 r \$1_\$2_readloop_slider_ui;
#X obj 336 219 r \$0_loop_duration;
#X obj 336 244 / 44100;
#X obj 210 288 / 1;
#X connect 0 0 1 0;
#X connect 1 0 13 0;
#X connect 2 0 8 0;
#X connect 3 0 8 0;
#X connect 5 0 9 0;
#X connect 6 0 7 0;
#X connect 8 0 1 0;
#X connect 9 0 6 0;
#X connect 10 0 5 0;
#X connect 11 0 12 0;
#X connect 12 0 13 1;
#X connect 13 0 4 0;
#X restore 4 675 pd slider_ui;
#X obj 80 -439 inlet;
#X obj 227 -93 * 1000;
#X floatatom 186 -73 5 0 0 0 - - -;
#X obj 214 -353 r tempoGoOutBang;
#X obj -24 -434 inlet;
#X obj -263 56 sel 0;
#X obj -264 32 r \$1_\$2_readloop;
#X obj 155 -384 r \$1_\$2_readloop;
#X obj 156 -360 sel 1;
#X obj 268 -314 bng 15 250 50 0 empty empty empty 17 7 0 10 -262144
-1 -1;
#X msg -128 78 1;
#X obj 418 -434 extra/sv tempo;
#X floatatom 21 -194 5 0 0 0 - - -;
#X floatatom 495 -382 5 0 0 0 - - -;
#X floatatom 528 -181 5 0 0 0 - - -;
#X obj 542 93 hradio 15 1 0 8 empty empty empty 0 -8 0 10 -262144 -1
-1 5;
#X obj 582 38 random 8;
#X obj 589 9 bng 15 250 50 0 empty empty empty 17 7 0 10 -262144 -1
-1;
#X obj 589 9 bng 15 250 50 0 empty empty empty 17 7 0 10 -262144 -1
-1;
#X obj 232 170 r \$0_loop_duration;
#X msg 284 366 0;
#X obj 223 398 phasor~;
#X obj 223 370 sig~;
#X obj 386 254 f 0;
#X obj 223 344 pow -1;
#X obj 209 674 outlet~;
#X obj 223 320 /;
#X floatatom 428 300 5 0 0 0 - - -;
#X obj 209 546 *~;
#X obj 387 324 f 0;
#X obj 392 388 / 1;
#X obj 428 273 pow 2;
#X msg 428 252 2;
#X obj 430 220 t b b f;
#X obj 654 540 * 1;
#X obj 653 229 hradio 15 1 0 8 empty empty empty 0 -8 0 10 -262144
-1 -1 6;
#X obj 654 564 sig~;
#X obj 29 472 sig~ 1;
#X obj 227 449 *~ 1;
#X obj 39 326 tgl 15 0 empty empty empty 17 7 0 10 -262144 -1 -1 1
1;
#X obj 39 352 sel 0 1;
#X msg 90 400 1;
#X msg 21 400 0;
#X msg 60 400 1;
#X msg 121 400 -1;
#X obj 653 281 / 8;
#X obj 653 485 * 1;
#X obj 223 269 / 1000;
#X obj 223 244 f 0;
#X obj 281 336 r \$0_loop_start;
#X obj 209 583 +~;
#X obj 653 512 i 0;
#X obj 401 437 t b f;
#X obj 372 72 r tempo_click_bang;
#X obj 434 108 i 0;
#X obj -37 297 extra/sv \$1_\$2_readloop_inverse;
#X text 663 196 set the start of reading;
#X text 341 47 set the portion of reading;
#X text 235 -123 duration in msec of reading;
#X text -13 273 Invert reading;
#X text 202 294 set phasor frequency;
#X obj 415 191 extra/sv \$1_\$2_readloop_slice;
#X obj 654 253 extra/sv \$1_\$2_readloop_start;
#X obj 257 204 - 2;
#X floatatom 365 535 10 0 0 0 - - -;
#X obj 209 503 +~;
#X obj 460 158 change;
#X obj 209 621 *~;
#X obj 267 588 extra/sv \$1_\$2_readloop_isplaying;
#X obj 282 636 tgl 15 0 empty empty empty 17 7 0 10 -262144 -1 -1 1
1;
#X obj 282 636 tgl 15 0 empty empty empty 17 7 0 10 -262144 -1 -1 0
1;
#X connect 0 0 1 0;
#X connect 0 0 3 0;
#X connect 1 0 0 1;
#X connect 2 0 0 0;
#X connect 3 0 7 0;
#X connect 4 0 9 0;
#X connect 5 0 7 1;
#X connect 5 0 8 0;
#X connect 6 0 0 1;
#X connect 7 0 4 0;
#X connect 7 0 39 0;
#X connect 8 0 25 0;
#X connect 9 0 13 0;
#X connect 10 0 16 0;
#X connect 11 0 10 0;
#X connect 12 0 28 0;
#X connect 15 0 37 0;
#X connect 16 0 12 0;
#X connect 17 0 18 0;
#X connect 18 0 19 0;
#X connect 19 0 20 0;
#X connect 20 0 24 0;
#X connect 21 0 14 0;
#X connect 21 0 41 0;
#X connect 22 0 17 0;
#X connect 23 0 21 0;
#X connect 24 0 21 0;
#X connect 24 1 21 1;
#X connect 25 0 12 0;
#X connect 25 1 12 1;
#X connect 27 0 2 0;
#X connect 28 0 29 0;
#X connect 28 0 75 0;
#X connect 30 0 6 0;
#X connect 30 0 36 0;
#X connect 31 0 9 0;
#X connect 32 0 37 0;
#X connect 33 0 32 0;
#X connect 34 0 35 0;
#X connect 35 0 6 0;
#X connect 38 0 11 0;
#X connect 38 0 23 0;
#X connect 40 0 23 0;
#X connect 42 0 81 1;
#X connect 43 0 42 0;
#X connect 43 0 62 0;
#X connect 44 0 43 0;
#X connect 46 0 90 0;
#X connect 47 0 48 1;
#X connect 48 0 65 0;
#X connect 49 0 48 0;
#X connect 50 0 56 0;
#X connect 51 0 49 0;
#X connect 53 0 51 0;
#X connect 54 0 53 1;
#X connect 54 0 73 1;
#X connect 54 0 57 1;
#X connect 55 0 77 0;
#X connect 56 0 57 0;
#X connect 57 0 55 1;
#X connect 57 0 79 0;
#X connect 58 0 54 0;
#X connect 59 0 58 0;
#X connect 60 0 50 0;
#X connect 60 0 75 0;
#X connect 60 1 59 0;
#X connect 60 2 58 1;
#X connect 61 0 63 0;
#X connect 62 0 89 1;
#X connect 63 0 77 1;
#X connect 64 0 92 1;
#X connect 65 0 92 0;
#X connect 66 0 67 0;
#X connect 67 0 68 0;
#X connect 67 0 69 0;
#X connect 67 1 71 0;
#X connect 67 1 70 0;
#X connect 68 0 65 1;
#X connect 69 0 64 0;
#X connect 70 0 64 0;
#X connect 71 0 65 1;
#X connect 72 0 73 0;
#X connect 73 0 78 0;
#X connect 74 0 53 0;
#X connect 75 0 74 0;
#X connect 76 0 47 0;
#X connect 77 0 26 0;
#X connect 77 0 94 0;
#X connect 78 0 61 0;
#X connect 79 0 73 0;
#X connect 79 1 61 1;
#X connect 80 0 81 0;
#X connect 81 0 93 0;
#X connect 82 0 66 0;
#X connect 88 0 60 0;
#X connect 89 0 72 0;
#X connect 90 0 50 0;
#X connect 92 0 55 0;
#X connect 93 0 88 1;
#X connect 94 0 52 0;
#X connect 95 0 94 1;
#X connect 95 0 96 0;
#X restore 601 222 pd rampgenerator;
#X obj -84 361 cnv 15 650 70 empty empty TO::UI 20 12 0 14 -261682
-66577 0;
#X obj -34 399 tgl 15 0 empty empty empty 17 7 0 10 -262144 -1 -1 1
1;
#X obj 348 397 hsl 128 15 0 1 0 0 empty empty empty -2 -8 0 10 -262144
-1 -1 12700 1;
#X floatatom 167 394 5 0 0 0 - - -;
#X obj 574 460 cnv 15 650 70 empty empty TO::OUTLET 20 12 0 14 -261682
-66577 0;
#X obj 455 -123 cnv 15 650 70 empty empty FROM::INLET 20 12 0 14 -261682
-66577 0;
#X obj 722 -132 inlet;
#X text 128 -140 RECEIVE FROM SENSOR;
#X obj 1032 -134 inlet;
#X text 617 194 start;
#X obj 722 490 outlet~;
#X obj 605 492 outlet~;
#X obj 345 329 r \$1_\$2_readloop_slider_ui;
#X obj 467 -71 inlet;
#X text 721 -157 start from click;
#X obj 601 -125 inlet;
#X text 550 -155 start directly;
#X obj 602 -94 bng 45 250 50 0 empty empty empty 17 7 0 10 -258113
-1 -1;
#X obj 765 142 tgl 45 0 empty empty empty 17 7 0 10 -4034 -1 -1 1 1
;
#X obj 885 -129 inlet;
#X obj 726 196 spigot;
#X obj 467 -22 pack s \$0;
#X msg 467 9 read \$1 \$2_loop;
#X obj -34 362 r \$1_\$2_readloop_play_ui;
#X obj 1099 243 cnv 15 300 100 empty empty empty 20 12 0 14 -233017
-66577 0;
#X obj 1119 300 bng 15 250 50 0 empty empty empty 17 7 0 10 -262144
-1 -1;
#X obj 1119 374 outlet;
#X obj 1119 268 r \$1_\$2_click_fromUI;
#X obj 1032 -99 change;
#X obj 1032 -74 s \$0_volume;
#X obj 168 363 r \$1_\$2_readloop_wait_ui;
#X obj 765 115 extra/sv \$1_\$2_readloop_isplaying;
#N canvas 0 22 450 278 (subpatch) 0;
#X array \$0_loop 3e+06 float 2;
#X coords 0 1 3e+06 -1 200 140 1;
#X restore 100 -29 graph;
#X obj 887 -5 tgl 15 0 empty empty empty 17 7 0 10 -262144 -1 -1 1
1;
#X obj 858 73 i 0;
#X obj 887 -35 extra/sv \$1_\$2_readloop_waitforplay;
#X obj 807 73 bng 15 250 50 0 empty empty empty 17 7 0 10 -262144 -1
-1;
#X obj 823 39 r tempo_quantif_bang;
#X obj 601 293 tabread4~ \$0_loop;
#X obj 604 394 *~ 1;
#X connect 0 0 5 0;
#X connect 1 0 20 0;
#X connect 1 1 19 0;
#X connect 8 0 47 0;
#X connect 15 0 29 0;
#X connect 17 0 37 0;
#X connect 21 0 11 0;
#X connect 22 0 30 0;
#X connect 24 0 26 0;
#X connect 26 0 8 0;
#X connect 27 0 29 1;
#X connect 28 0 40 1;
#X connect 29 0 8 1;
#X connect 30 0 31 0;
#X connect 31 0 0 0;
#X connect 32 0 10 0;
#X connect 34 0 35 0;
#X connect 36 0 34 0;
#X connect 37 0 38 0;
#X connect 39 0 12 0;
#X connect 40 0 27 0;
#X connect 42 0 43 1;
#X connect 43 0 40 1;
#X connect 44 0 42 0;
#X connect 46 0 43 0;
#X connect 46 0 45 0;
#X connect 47 0 48 0;
#X connect 48 0 1 0;
#X coords 0 750 1 749 132 500 0;
