#N canvas 458 263 450 300 12;
#X obj 81 91 float;
#X floatatom 81 159 5 0 0 0 - - - 0;
#X obj 130 91 + 1;
#X msg 170 160 0;
#X obj 133 121 moses 2;
#X obj 170 208 bng 20 250 50 0 empty empty empty 0 -10 0 12 #fcfcfc #000000 #000000;
#X obj 170 233 outlet;
#X obj 81 45 inlet;
#X text 78 22 bang;
#X obj 232 47 inlet;
#X text 171 262 bang;
#X text 231 26 reset;
#X connect 0 0 2 0;
#X connect 0 0 1 0;
#X connect 0 0 4 0;
#X connect 2 0 0 1;
#X connect 3 0 0 0;
#X connect 3 0 5 0;
#X connect 4 1 3 0;
#X connect 5 0 6 0;
#X connect 7 0 0 0;
#X connect 9 0 3 0;
