#N canvas 0 25 1364 657 10;
#X obj 101 101 cnv 15 138 30 empty \$0_titlecnv DELAY 20 12 0 18 #00f8fc #404040 0;
#X obj 223 310 vu 20 80 empty empty -1 -8 0 10 #404040 #000000 0 0;
#X msg 299 231 set \$1;
#X obj 100 134 cnv 15 150 23 empty empty feedback 3 9 0 14 #202020 #fcfcfc 0;
#X obj -29 301 vsl 15 128 0 127 0 0 empty empty empty 0 -9 0 10 #fcfcfc #000000 #000000 0 1;
#X obj 102 213 hradio 15 1 0 7 empty empty empty 0 -8 0 10 #7c7c7c #fcfcfc #000000 0;
#X obj -39 249 extra/sv delay_divide;
#X obj 298 196 extra/sv delay_feedback;
#X obj 108 162 hsl 128 15 1 100 0 0 empty empty empty -2 -8 0 10 #7c7c7c #fcfcfc #000000 0 1;
#X obj 100 184 cnv 15 150 23 empty empty Length 3 9 0 14 #202020 #fcfcfc 0;
#X msg -26 202 set \$1;
#X obj 176 136 extra/midiLearn \$1_sampler_volume;
#X obj 100 240 cnv 15 150 23 empty empty time 3 9 0 14 #202020 #fcfcfc 0;
#X obj 174 242 extra/midiLearn \$1_sampler_volume;
#X obj 292 348 extra/sv delay_time;
#X msg 313 407 set \$1;
#X obj 110 272 hsl 128 15 1 100 0 0 empty empty empty -2 -8 0 10 #7c7c7c #fcfcfc #000000 0 1;
#X obj 315 109 / 127;
#X obj 313 139 * 100;
#X obj 330 280 / 127;
#X obj 328 310 * 100;
#X floatatom 417 242 5 0 0 0 - - - 0;
#X floatatom 418 432 5 0 0 0 - - - 0;
#X listbox 330 514 20 0 0 0 - - - 0;
#X listbox 416 481 20 0 0 0 - - - 0;
#X obj 514 208 spigot;
#X floatatom 602 33 5 0 0 0 - - - 0;
#X floatatom 480 27 5 0 0 0 - - - 0;
#X obj 551 170 tgl 20 0 empty empty empty 0 -10 0 12 #fcfcfc #000000 #000000 0 1;
#X obj 684 129 sel 2;
#X obj 552 128 sel 1;
#X obj 656 212 spigot;
#X obj 687 170 tgl 20 0 empty empty empty 0 -10 0 12 #fcfcfc #000000 #000000 0 1;
#X floatatom 632 278 5 0 0 0 - - - 0;
#X obj 546 81 ctlin;
#X obj 617 80 ctlin;
#X connect 2 0 8 0;
#X connect 5 0 6 1;
#X connect 6 0 10 0;
#X connect 7 0 2 0;
#X connect 8 0 17 0;
#X connect 10 0 5 0;
#X connect 13 0 21 0;
#X connect 14 0 15 0;
#X connect 14 0 22 0;
#X connect 14 0 24 0;
#X connect 14 0 23 0;
#X connect 15 0 16 0;
#X connect 16 0 19 0;
#X connect 17 0 18 0;
#X connect 18 0 7 1;
#X connect 19 0 20 0;
#X connect 20 0 14 1;
#X connect 28 0 25 1;
#X connect 29 0 32 0;
#X connect 30 0 28 0;
#X connect 31 0 33 0;
#X connect 32 0 31 1;
#X connect 34 0 25 0;
#X connect 34 0 27 0;
#X connect 34 1 26 0;
#X connect 34 1 30 0;
#X connect 35 0 31 0;
#X connect 35 1 29 0;
#X coords 0 -1 1 1 150 300 2 100 100;
