#N canvas 0 25 1364 657 10;
#X obj 101 100 cnv 15 563 40 empty empty SAMPLER8 20 12 0 14 #9c9c9c #404040 0;
#X obj 103 150 cnv 15 138 50 empty empty PLAY_1 5 12 0 14 #202020 #fcfcfc 0;
#X obj 245 151 cnv 15 138 50 empty empty PLAY_2 5 12 0 14 #202020 #fcfcfc 0;
#X obj 386 151 cnv 15 138 50 empty empty PLAY_3 2 12 0 14 #202020 #fcfcfc 0;
#X obj 526 151 cnv 15 138 50 empty empty PLAY_4 5 12 0 14 #202020 #fcfcfc 0;
#X obj 103 203 cnv 15 138 50 empty empty PLAY_5 5 12 0 14 #202020 #fcfcfc 0;
#X obj 245 204 cnv 15 138 50 empty empty PLAY_6 5 12 0 14 #202020 #fcfcfc 0;
#X obj 386 204 cnv 15 138 50 empty empty PLAY_7 5 12 0 14 #202020 #fcfcfc 0;
#X obj 526 204 cnv 15 138 50 empty empty PLAY_8 5 12 0 14 #202020 #fcfcfc 0;
#X obj -313 202 extra/sv \$1_readsound_1_isplaying;
#X obj 891 197 extra/sv \$1_readsound_4_isplaying;
#X obj 669 197 extra/sv \$1_readsound_3_isplaying;
#X obj -105 203 extra/sv \$1_readsound_2_isplaying;
#X obj -314 253 extra/sv \$1_readsound_5_isplaying;
#X obj -107 253 extra/sv \$1_readsound_6_isplaying;
#X obj 671 241 extra/sv \$1_readsound_7_isplaying;
#X obj 889 242 extra/sv \$1_readsound_8_isplaying;
#X obj 768 130 extra/sv \$1_module_ask_selection;
#X obj 831 83 sel 0;
#X msg 831 106 1;
#X obj 202 108 cnv 15 138 23 empty empty SELECT 5 12 0 14 #202020 #fcfcfc 0;
#X obj 101 260 cnv 15 138 23 empty empty VOLUME 5 12 0 14 #202020 #fcfcfc 0;
#X obj -76 307 extra/sv \$1_sampler_volume;
#X obj -38 347 s globalPitch;
#X obj 245 258 cnv 15 138 23 empty empty PITCH 5 12 0 14 #202020 #fcfcfc 0;
#X obj 167 153 extra/midiLearn sampler8_play1;
#X obj 304 154 extra/midiLearn sampler8_play2;
#X obj 445 155 extra/midiLearn sampler8_play3;
#X obj 585 155 extra/midiLearn sampler8_play4;
#X obj 165 205 extra/midiLearn sampler8_play5;
#X obj 304 207 extra/midiLearn sampler8_play6;
#X obj 448 207 extra/midiLearn sampler8_play7;
#X obj 589 208 extra/midiLearn sampler8_play8;
#X obj 264 110 extra/midiLearn \$1_module_ask_selection;
#X obj 165 262 extra/midiLearn \$1_sampler_volume;
#X obj 302 261 extra/midiLearn globalPitch;
#X obj 387 258 cnv 15 138 23 empty empty REC 5 12 0 14 #202020 #fcfcfc 0;
#X obj 447 260 extra/midiLearn sampler8_recmode;
#X obj -158 420 extra/sv \$1_sampler8_recmode;
#X obj -48 383 bang;
#X text -197 540 extra/midiLearnn 2_sampler_volume;
#X obj 527 291 cnv 15 138 23 empty empty OPEN/SAVE 5 12 0 14 #202020 #fcfcfc 0;
#X obj 948 480 extra/sv \$1_looper8_saveBank;
#X obj 589 293 extra/midiLearn \$1_sampler8_openSave;
#X obj 802 396 extra/short_or_long;
#X obj 943 435 bng 15 250 50 0 empty empty empty 17 7 0 10 #fcfcfc #000000 #000000;
#X obj 783 433 bng 15 250 50 0 empty empty empty 17 7 0 10 #fcfcfc #000000 #000000;
#X obj 869 279 extra/sv song_mode;
#X obj 810 353 spigot;
#X obj 870 320 tgl 15 0 empty empty empty 17 7 0 10 #fcfcfc #000000 #000000 0 1;
#X obj 798 512 extra/sv \$1_sampler8_bank;
#X obj 732 463 extra/sv song;
#X obj 122 565 extra/sv \$1_sampler8_bank;
#X obj 151 381 notein;
#X obj 127 416 moses 48;
#X floatatom 172 446 5 0 0 0 - - - 0;
#X floatatom 172 491 5 0 0 0 - - - 0;
#X obj 172 468 moses 72;
#X obj 172 513 - 47;
#X floatatom 172 536 5 0 0 0 - - - 0;
#X text 99 599 assigner touche midi 48 à 71 pour controle bank 1 à 24;
#X floatatom 475 442 5 0 0 0 - - - 0;
#X msg 349 398 1;
#X msg 380 398 2;
#X msg 414 398 3;
#X msg 447 399 4;
#X msg 478 399 5;
#X msg 509 398 6;
#X msg 543 398 7;
#X msg 576 398 8;
#X obj 703 565 print pathGarnular;
#X obj 343 568 s path_granular;
#X obj 475 475 pack \$1 \$2;
#X obj 194 28 notein;
#X floatatom 194 51 5 0 0 0 - - - 0;
#X msg 341 523 ../../samples/samplerBank/\$2/\$1.wav;
#X msg 569 536 list \$1 ../../samples/samplerBank/\$2/\$1.wav;
#X obj 568 587 s pathPads;
#X obj 86 370 loadbang;
#X msg 86 393 48;
#X connect 9 0 62 0;
#X connect 10 0 65 0;
#X connect 11 0 64 0;
#X connect 12 0 63 0;
#X connect 13 0 66 0;
#X connect 14 0 67 0;
#X connect 15 0 68 0;
#X connect 16 0 69 0;
#X connect 18 0 19 0;
#X connect 19 0 17 1;
#X connect 25 0 9 1;
#X connect 26 0 12 1;
#X connect 27 0 11 1;
#X connect 28 0 10 1;
#X connect 29 0 13 1;
#X connect 30 0 14 1;
#X connect 31 0 15 1;
#X connect 32 0 16 1;
#X connect 33 0 18 0;
#X connect 34 0 22 1;
#X connect 35 0 23 0;
#X connect 37 0 39 0;
#X connect 39 0 38 0;
#X connect 43 0 48 0;
#X connect 44 0 46 0;
#X connect 44 1 45 0;
#X connect 45 0 42 1;
#X connect 46 0 51 2;
#X connect 47 0 49 0;
#X connect 48 0 44 0;
#X connect 49 0 48 1;
#X connect 51 1 50 1;
#X connect 53 0 54 0;
#X connect 54 1 55 0;
#X connect 55 0 57 0;
#X connect 56 0 58 0;
#X connect 57 0 56 0;
#X connect 58 0 59 0;
#X connect 59 0 52 1;
#X connect 59 0 72 1;
#X connect 61 0 72 0;
#X connect 62 0 61 0;
#X connect 63 0 61 0;
#X connect 64 0 61 0;
#X connect 65 0 61 0;
#X connect 66 0 61 0;
#X connect 67 0 61 0;
#X connect 68 0 61 0;
#X connect 69 0 61 0;
#X connect 72 0 75 0;
#X connect 72 0 76 0;
#X connect 73 0 74 0;
#X connect 75 0 71 0;
#X connect 76 0 77 0;
#X connect 78 0 79 0;
#X connect 79 0 54 0;
#X coords 0 -1 1 1 565 230 1 101 99;
