#N canvas 0 25 1364 657 10;
#X obj 320 282 delread~ delayMain;
#X floatatom 389 169 5 0 4000 1 ms - - 0;
#X floatatom 316 62 5 0 0 0 - - - 0;
#X obj 316 108 / 60;
#X obj 316 133 pow -1;
#X obj 316 158 * 1000;
#X floatatom 389 405 5 0 0 0 feedback - - 0;
#X obj 316 84 * 1;
#X obj 93 419 +~;
#X obj 271 182 t b f;
#X obj 93 455 outlet~;
#X obj 319 239 / 3;
#X obj 269 151 + 1;
#X obj 163 65 *~ 0.9;
#X obj 163 411 delwrite~ delayMain 200;
#X obj 115 -16 inlet~;
#X text 72 41 dry/wet fixed;
#X obj 372 215 s effect_delay_ms;
#X obj 316 38 extra/sv tempo;
#X obj 310 -26 inlet;
#X obj 108 371 *~ 0.4;
#X obj 269 7 extra/sv delay_divide;
#X obj 93 25 *~ 0.01;
#X obj 362 353 / 127;
#X obj 395 128 * 6;
#X floatatom 500 282 5 0 0 0 - - - 0;
#X floatatom 543 279 5 0 0 0 - - - 0;
#X floatatom 635 279 5 0 0 0 - - - 0;
#X obj 662 238 ctlin;
#X floatatom 673 281 5 0 0 0 - - - 0;
#X floatatom 722 277 5 0 0 0 - - - 0;
#X obj 395 67 ctlin 3 1;
#X obj 522 229 ctlin 2 1;
#X connect 0 0 20 0;
#X connect 1 0 11 0;
#X connect 1 0 17 0;
#X connect 2 0 7 0;
#X connect 3 0 4 0;
#X connect 4 0 5 0;
#X connect 7 0 3 0;
#X connect 8 0 10 0;
#X connect 9 0 11 0;
#X connect 9 1 11 1;
#X connect 11 0 0 0;
#X connect 12 0 9 0;
#X connect 13 0 14 0;
#X connect 15 0 13 0;
#X connect 15 0 22 0;
#X connect 18 0 2 0;
#X connect 19 0 21 1;
#X connect 20 0 8 1;
#X connect 20 0 14 0;
#X connect 21 0 12 0;
#X connect 22 0 8 0;
#X connect 23 0 20 1;
#X connect 23 0 6 0;
#X connect 24 0 1 0;
#X connect 25 0 23 0;
#X connect 28 0 27 0;
#X connect 28 1 29 0;
#X connect 28 2 30 0;
#X connect 31 0 24 0;
#X connect 32 0 25 0;
#X coords 0 657 1 656 132 500 0;
