#N canvas 421 81 846 551 10;
#N canvas 280 15 1028 657 granulator1 0;
#X obj 4 48 inlet;
#X obj 93 53 inlet;
#X obj 105 172 hsl 200 15 0 1 0 1 empty empty position 2 7 0 10 #fcfcfc #000000 #000000 313 1;
#X obj -49 568 abs_particles12, f 17;
#X obj 516 33 inlet;
#X text 503 11 filename;
#X obj -59 616 outlet~;
#X obj -4 618 outlet~;
#X obj 391 79 openpanel;
#X obj 257 113 bng 15 250 50 0 empty empty < 4 8 0 10 #fcfcfc #000000 #000000;
#X msg 373 297 set symbol \$1;
#X obj 360 501 soundfiler;
#X obj 373 379 t b a;
#X obj 372 436 pack \$0 s;
#X msg 361 475 read -resize \$2 \$1grainsource1;
#X obj 370 409 float;
#X obj 474 297 loadbang;
#X msg 373 339 symbol ../../samples/samplerBank/1/7.wav;
#X obj 105 132 hsl 200 15 0 1 0 1 empty empty rate 2 7 0 10 #fcfcfc #000000 #000000 9577 1;
#X obj 1 219 t f f;
#X obj -11 246 *;
#X obj -25 277 t b f;
#X obj -99 448 metro 30;
#X symbolatom 102 115 25 0 0 0 - - - 0;
#X obj -24 383 * 1000;
#X obj -33 417 clip 1 1000;
#X obj 66 486 *;
#X obj 250 397 / 4;
#X obj 105 212 hsl 112 15 0 1 0 1 empty empty len 2 7 0 10 #fcfcfc #000000 #000000 4800 1;
#X obj 225 212 hsl 80 15 0 1 0 1 empty empty len_jitter 2 7 0 10 #fcfcfc #000000 #000000 5800 1;
#X obj -27 499 *;
#X obj 7 498 *;
#X obj 103 233 nbx 3 14 -36 36 0 1 empty empty empty 0 -8 0 10 #fcfcfc #000000 #000000 0 256;
#X obj 150 232 hsl 80 15 -2 2 0 1 empty empty pitch_jitter 2 7 0 10 #fcfcfc #000000 #000000 3950 1;
#X obj 241 232 hsl 64 15 0 1 0 1 empty empty pan_jitter 2 7 0 10 #fcfcfc #000000 #000000 2700 1;
#X obj 105 192 hsl 200 15 0 1 0 1 empty empty position_jitter 2 7 0 10 #fcfcfc #000000 #000000 8300 1;
#X obj 106 491 *;
#X obj -91 407 delay 10;
#X obj 47 262 t f f;
#X obj 49 291 *;
#X obj 155 273 t f f;
#X obj 152 302 *;
#X obj 97 283 t f f;
#X obj 94 312 *;
#X obj -17 358 +;
#X obj -85 286 random;
#X obj -55 214 *;
#X obj -49 186 t f f;
#X obj -168 65 inlet;
#X obj -167 86 t b;
#X text -173 44 metro sync;
#X obj -166 390 delay 0;
#X obj 105 152 hsl 200 15 0 1 0 1 empty empty rate_jitter 2 7 0 10 #fcfcfc #000000 #000000 6200 1;
#X obj -55 235 *;
#X obj -76 258 * 1000;
#X obj -66 325 / 1000;
#X obj -103 360 clip 10 1000;
#X msg 292 296 set \$1;
#X msg 256 336 102758;
#X text 2 26 pos;
#X obj 1 83 clip 0 1;
#X obj 92 79 clip 0 1;
#X text 93 34 rate;
#X text 567 6 basic granulator;
#X obj 274 261 t b b a;
#X msg 173 20 bang;
#X obj 578 618 outlet;
#X obj 573 560 pack f f f f f f f f f;
#X obj 556 528 float;
#X obj 292 113 bng 15 250 50 0 empty empty dp -13 8 0 10 #fcfcfc #000000 #000000;
#X obj 592 239 t b b;
#X obj 233 -58 inlet;
#X text 235 -79 params;
#X obj 236 -26 unpack f f f f f f f f f;
#X msg 575 589 set \$1 \$2 \$3 \$4 \$5 \$6 \$7 \$8 \$9;
#X obj 521 162 bng 18 250 50 0 empty empty empty 0 -9 0 10 #fcfcfc #000000 #000000;
#X obj 412 6 inlet;
#X text 411 -17 pitch -1 to 1;
#X connect 0 0 60 0;
#X connect 1 0 61 0;
#X connect 2 0 26 0;
#X connect 2 0 67 2;
#X connect 3 0 6 0;
#X connect 3 1 7 0;
#X connect 3 2 15 1;
#X connect 4 0 10 0;
#X connect 4 0 12 0;
#X connect 4 0 23 0;
#X connect 4 0 75 0;
#X connect 8 0 23 0;
#X connect 8 0 12 0;
#X connect 8 0 10 0;
#X connect 9 0 8 0;
#X connect 10 0 17 0;
#X connect 11 0 64 0;
#X connect 12 0 15 0;
#X connect 12 1 13 1;
#X connect 13 0 14 0;
#X connect 14 0 11 0;
#X connect 15 0 13 0;
#X connect 16 0 17 0;
#X connect 17 0 12 0;
#X connect 17 0 23 0;
#X connect 18 0 19 0;
#X connect 18 0 68 1;
#X connect 19 0 20 0;
#X connect 19 1 20 1;
#X connect 20 0 21 0;
#X connect 20 0 53 1;
#X connect 21 0 37 0;
#X connect 21 1 44 1;
#X connect 22 0 3 0;
#X connect 22 0 51 0;
#X connect 24 0 25 0;
#X connect 24 0 56 0;
#X connect 25 0 22 1;
#X connect 26 0 3 3;
#X connect 27 0 30 1;
#X connect 27 0 31 1;
#X connect 27 0 36 1;
#X connect 28 0 38 0;
#X connect 28 0 67 4;
#X connect 29 0 40 0;
#X connect 29 0 67 5;
#X connect 30 0 3 1;
#X connect 31 0 3 2;
#X connect 32 0 3 5;
#X connect 32 0 67 6;
#X connect 33 0 3 6;
#X connect 33 0 67 7;
#X connect 34 0 3 7;
#X connect 34 0 67 8;
#X connect 35 0 42 0;
#X connect 35 0 67 3;
#X connect 36 0 3 4;
#X connect 37 0 22 0;
#X connect 38 0 39 0;
#X connect 38 1 39 1;
#X connect 39 0 30 0;
#X connect 40 0 41 0;
#X connect 40 1 41 1;
#X connect 41 0 31 0;
#X connect 42 0 43 0;
#X connect 42 1 43 1;
#X connect 43 0 36 0;
#X connect 44 0 24 0;
#X connect 45 0 55 0;
#X connect 46 0 53 0;
#X connect 47 0 46 0;
#X connect 47 1 46 1;
#X connect 48 0 49 0;
#X connect 49 0 22 0;
#X connect 51 0 45 0;
#X connect 52 0 47 0;
#X connect 52 0 67 1;
#X connect 53 0 54 0;
#X connect 54 0 45 1;
#X connect 55 0 44 0;
#X connect 56 0 37 1;
#X connect 57 0 58 0;
#X connect 58 0 27 0;
#X connect 58 0 26 1;
#X connect 60 0 2 0;
#X connect 61 0 18 0;
#X connect 64 0 65 0;
#X connect 64 1 58 0;
#X connect 64 2 57 0;
#X connect 65 0 18 0;
#X connect 65 0 52 0;
#X connect 65 0 2 0;
#X connect 65 0 35 0;
#X connect 65 0 28 0;
#X connect 65 0 29 0;
#X connect 65 0 32 0;
#X connect 65 0 33 0;
#X connect 65 0 34 0;
#X connect 67 0 74 0;
#X connect 68 0 67 0;
#X connect 69 0 70 0;
#X connect 70 0 68 0;
#X connect 70 1 65 0;
#X connect 71 0 73 0;
#X connect 73 0 18 0;
#X connect 73 1 52 0;
#X connect 73 2 2 0;
#X connect 73 3 35 0;
#X connect 73 4 28 0;
#X connect 73 5 29 0;
#X connect 73 6 32 0;
#X connect 73 7 33 0;
#X connect 73 8 34 0;
#X connect 74 0 66 0;
#X connect 75 0 17 0;
#X connect 76 0 33 0;
#X coords 0 -1 1 1 209 150 1 100 100;
#X restore 161 229 pd granulator1;
#X obj 150 179 loadbang;
#X obj 665 98 loadbang;
#X obj 659 235 playlist all 400 205 {Helvetica 10 bold} white yellow black red;
#X msg 663 552 stdlymarimba1loop.wav;
#X msg 662 522 set \$1;
#X msg 669 124 location /home/mnb/samplelib;
#X msg 679 174 location /home/mnb/wave_wrk;
#X msg 713 196 location ..;
#X msg 680 151 location /home/mnb/archiv/sounds;
#N canvas 1 79 619 500 limit 0;
#X obj 88 47 inlet~;
#X obj 89 374 outlet~;
#X obj 94 332 hip~ 20;
#X obj 121 119 env~;
#X obj 123 146 dbtorms;
#X obj 127 201 line~;
#X obj 130 258 +~ 1;
#X obj 94 303 /~;
#X msg 125 175 \$1 10;
#X obj 128 227 lop~ 40;
#X connect 0 0 3 0;
#X connect 0 0 7 0;
#X connect 2 0 1 0;
#X connect 3 0 4 0;
#X connect 4 0 8 0;
#X connect 5 0 9 0;
#X connect 6 0 7 1;
#X connect 7 0 2 0;
#X connect 8 0 5 0;
#X connect 9 0 6 0;
#X restore 169 519 pd limit;
#N canvas 1 79 619 500 limit 0;
#X obj 88 47 inlet~;
#X obj 89 374 outlet~;
#X obj 94 332 hip~ 20;
#X obj 121 119 env~;
#X obj 123 146 dbtorms;
#X obj 127 201 line~;
#X obj 130 258 +~ 1;
#X obj 94 303 /~;
#X msg 125 175 \$1 10;
#X obj 128 227 lop~ 40;
#X connect 0 0 3 0;
#X connect 0 0 7 0;
#X connect 2 0 1 0;
#X connect 3 0 4 0;
#X connect 4 0 8 0;
#X connect 5 0 9 0;
#X connect 6 0 7 1;
#X connect 7 0 2 0;
#X connect 8 0 5 0;
#X connect 9 0 6 0;
#X restore 330 529 pd limit;
#X msg 129 666 0.190955 0.311558 0.236181 0.417085 0.432432 0.734177 0 0 0.428571;
#X obj 629 30 bng 20 250 50 0 empty empty empty 0 -10 0 12 #fcfcfc #000000 #000000;
#X obj 531 338 vu 20 200 empty empty -1 -10 0 12 #404040 #000000 1 0;
#X obj 462 615 env~;
#X obj 462 641 - 97;
#X obj 616 330 vu 20 200 empty empty -1 -10 0 12 #404040 #000000 1 0;
#X obj 580 621 env~;
#X obj 580 647 - 97;
#X obj 259 390 ctlin 5;
#X obj 262 414 hsl 153 18 1.27 127 0 0 empty empty empty -2 -9 0 10 #fcfcfc #000000 #000000 0 1;
#X floatatom 259 460 5 0 0 0 - - - 0;
#X obj 178 41 ctlin 6;
#X floatatom 179 137 5 0 0 0 - - - 0;
#X obj 245 65 * -1;
#X obj 245 88 + 127;
#X floatatom 246 138 5 0 0 0 - - - 0;
#X obj 245 42 ctlin 7;
#X obj 245 111 / 160;
#X obj 169 542 clip~ -0.5 0.5;
#X obj 329 555 clip~ -0.5 0.5;
#X obj 169 586 outlet~;
#X obj 328 599 outlet~;
#X obj 412 159 r path_granular;
#X obj 178 110 / 127;
#X obj 168 493 *~ 0;
#X obj 331 505 *~ 0;
#X obj 259 437 / 96;
#X obj 359 -98 ctlin 1;
#X floatatom 359 -70 5 0 0 0 - - - 0;
#X floatatom 357 -17 5 0 0 0 - - - 0;
#X floatatom 410 -14 5 0 0 0 - - - 0;
#X floatatom 410 35 5 0 0 0 - - - 0;
#X floatatom 463 37 5 0 0 0 - - - 0;
#X obj 357 -42 moses 49;
#X floatatom 357 82 5 0 0 0 - - - 0;
#X obj 410 10 moses 79;
#X obj 463 61 - 79;
#X floatatom 463 136 5 0 0 0 - - - 0;
#X floatatom 333 140 5 0 0 0 - - - 0;
#X obj 463 111 + 0;
#X msg 410 59 0;
#X obj 357 32 / 48;
#X obj 463 86 / 48;
#X obj 357 56 - 1;
#X obj 423 254 print pathGarnalar;
#X msg 556 201 open \$1;
#X msg 548 56 ../../samples/samplerBank/3/1.wav;
#X obj 518 113 tgl 18 0 empty empty empty 0 -9 0 10 #fcfcfc #000000 #000000 0 1;
#X obj 346 206 symbol;
#X connect 0 0 36 0;
#X connect 0 1 37 0;
#X connect 0 2 12 0;
#X connect 1 0 0 0;
#X connect 2 0 6 0;
#X connect 3 1 5 0;
#X connect 5 0 4 0;
#X connect 6 0 3 0;
#X connect 7 0 3 0;
#X connect 8 0 3 0;
#X connect 9 0 3 0;
#X connect 10 0 30 0;
#X connect 11 0 31 0;
#X connect 12 0 0 3;
#X connect 13 0 58 0;
#X connect 15 0 16 0;
#X connect 16 0 14 0;
#X connect 18 0 19 0;
#X connect 19 0 17 0;
#X connect 20 0 21 0;
#X connect 21 0 38 0;
#X connect 22 0 36 1;
#X connect 22 0 37 1;
#X connect 23 0 35 0;
#X connect 24 0 0 1;
#X connect 25 0 26 0;
#X connect 26 0 29 0;
#X connect 27 0 0 2;
#X connect 28 0 25 0;
#X connect 29 0 27 0;
#X connect 30 0 15 0;
#X connect 30 0 32 0;
#X connect 31 0 18 0;
#X connect 31 0 33 0;
#X connect 34 0 60 0;
#X connect 35 0 24 0;
#X connect 36 0 10 0;
#X connect 37 0 11 0;
#X connect 38 0 22 0;
#X connect 39 0 40 0;
#X connect 40 0 45 0;
#X connect 41 0 53 0;
#X connect 42 0 47 0;
#X connect 43 0 52 0;
#X connect 44 0 48 0;
#X connect 45 0 41 0;
#X connect 45 1 42 0;
#X connect 46 0 50 0;
#X connect 47 0 43 0;
#X connect 47 1 44 0;
#X connect 48 0 54 0;
#X connect 49 0 50 0;
#X connect 50 0 0 4;
#X connect 51 0 49 0;
#X connect 52 0 50 0;
#X connect 53 0 55 0;
#X connect 54 0 51 0;
#X connect 55 0 46 0;
#X connect 57 0 0 5;
#X connect 58 0 57 0;
#X connect 60 0 0 5;
