#N canvas 0 25 1364 657 12;
#N canvas 0 0 450 300 (subpatch) 0;
#X array readsound_\$1_\$2 113664 float 2;
#X coords 0 1 113664 -1 200 140 1 0 0;
#X restore 685 345 graph;
#X obj 246 267 expr 44100 / $f1;
#X floatatom 252 328 5 0 0 0 - - - 0;
#X obj 265 406 phasor~;
#X obj 268 451 *~;
#X obj 492 434 unsig~ 50;
#X obj 686 493 hsl 200 15 0 1 0 0 empty empty empty -2 -6 0 8 #fcfcfc #000000 #000000 0 1;
#X text 684 516 0;
#X text 884 515 1;
#X obj 263 362 *;
#X obj 408 322 hsl 128 15 -2 2 0 0 empty empty empty -2 -6 0 8 #fcc4c4 #000000 #000000 0 1;
#X text 381 337 -2;
#X text 523 340 2;
#X text 437 299 playback speed;
#X obj 306 303 t b f;
#X msg 443 251 1;
#X obj 596 406 snapshot~;
#X obj 597 375 metro 100;
#X obj 598 352 tgl 15 0 empty empty empty 17 7 0 10 #fcfcfc #000000 #000000 0 1;
#X floatatom 596 439 5 0 0 0 - - - 0;
#X floatatom 421 354 5 0 0 0 - - - 0;
#X msg 488 251 0;
#X obj 290 105 bng 15 250 50 0 empty empty empty 17 7 0 10 #fcfcfc #000000 #000000;
#X floatatom 319 212 10 0 0 0 - - - 0;
#X obj 602 309 loadbang;
#X obj 322 101 loadbang;
#X obj 418 185 loadbang;
#X msg 313 378 0;
#X obj 315 355 bng 15 250 50 0 empty empty reset_0 17 7 0 10 #f8fc00 #000000 #000000;
#X obj 519 225 bng 15 250 50 0 empty empty stop 17 7 0 10 #fc0400 #000000 #000000;
#X msg 399 254 1.5;
#X obj 458 225 bng 15 250 50 0 empty empty start 17 7 0 10 #00fc04 #000000 #000000;
#X text 499 131 array should have data saved already;
#X obj 267 494 outlet~;
#X obj 89 210 r \$0_loop_duration;
#X obj 291 132 array size readsound_\$1_\$2;
#X obj 171 39 inlet;
#X text 173 14 bang;
#X obj 333 167 print pitch;
#X obj 171 64 t b b;
#X obj 792 12 ctlin 1;
#X floatatom 792 67 5 0 0 0 - - - 0;
#X floatatom 790 120 5 0 0 0 - - - 0;
#X floatatom 843 123 5 0 0 0 - - - 0;
#X floatatom 843 172 5 0 0 0 - - - 0;
#X floatatom 896 174 5 0 0 0 - - - 0;
#X obj 790 95 moses 49;
#X floatatom 790 219 5 0 0 0 - - - 0;
#X obj 843 147 moses 79;
#X obj 896 198 - 79;
#X obj 896 223 / 48;
#X obj 896 248 + 1;
#X floatatom 896 273 5 0 0 0 - - - 0;
#X floatatom 766 277 5 0 0 0 - - - 0;
#X msg 843 196 1;
#X obj 790 193 + 0;
#X obj 790 169 / 48;
#X connect 1 0 2 0;
#X connect 2 0 9 0;
#X connect 3 0 4 0;
#X connect 3 0 5 0;
#X connect 3 0 16 0;
#X connect 4 0 33 0;
#X connect 5 0 6 0;
#X connect 9 0 3 0;
#X connect 10 0 14 0;
#X connect 10 0 20 0;
#X connect 14 0 2 0;
#X connect 14 1 9 1;
#X connect 15 0 10 0;
#X connect 16 0 19 0;
#X connect 17 0 16 0;
#X connect 18 0 17 0;
#X connect 19 0 6 0;
#X connect 21 0 10 0;
#X connect 22 0 35 0;
#X connect 24 0 18 0;
#X connect 26 0 15 0;
#X connect 27 0 3 1;
#X connect 28 0 27 0;
#X connect 29 0 21 0;
#X connect 30 0 10 0;
#X connect 31 0 15 0;
#X connect 34 0 1 0;
#X connect 34 0 4 1;
#X connect 35 0 4 1;
#X connect 35 0 1 0;
#X connect 35 0 23 0;
#X connect 35 0 38 0;
#X connect 36 0 39 0;
#X connect 39 0 22 0;
#X connect 39 1 28 0;
#X connect 40 0 41 0;
#X connect 41 0 46 0;
#X connect 42 0 56 0;
#X connect 43 0 48 0;
#X connect 44 0 54 0;
#X connect 45 0 49 0;
#X connect 46 0 42 0;
#X connect 46 1 43 0;
#X connect 47 0 53 0;
#X connect 48 0 44 0;
#X connect 48 1 45 0;
#X connect 49 0 50 0;
#X connect 50 0 51 0;
#X connect 51 0 52 0;
#X connect 52 0 53 0;
#X connect 53 0 10 0;
#X connect 54 0 53 0;
#X connect 55 0 47 0;
#X connect 56 0 55 0;
