#N canvas 0 25 1364 657 12;
#X obj 254 52 vsl 20 170 0 127 0 0 empty empty empty 0 -9 0 12 #fcfcfc #000000 #000000 0 1;
#X obj 215 292 *~ 0.1;
#X obj 254 256 + 0.1;
#X obj 179 336 clip~ -0.1 0.1;
#X obj 347 294 *~ 0.1;
#X obj 311 338 clip~ -0.1 0.1;
#X obj 103 141 inlet~;
#X obj 357 148 inlet~;
#X obj 169 380 outlet~;
#X obj 322 380 outlet~;
#X obj 243 11 ctlin 8;
#X obj 254 231 / 92;
#X connect 0 0 11 0;
#X connect 1 0 3 0;
#X connect 2 0 1 1;
#X connect 2 0 4 1;
#X connect 3 0 8 0;
#X connect 4 0 5 0;
#X connect 5 0 9 0;
#X connect 6 0 1 0;
#X connect 7 0 4 0;
#X connect 10 0 0 0;
#X connect 11 0 2 0;
